<svg xmlns="http://www.w3.org/2000/svg" data-name="Layer 1" viewBox="0 0 512 512"><g data-name="&lt;Group&gt;"><g data-name="&lt;Group&gt;"><path fill="#fedb41" d="M472.23,347.66v53.09a18.6,18.6,0,0,1-18.59,18.6H58.36a18.6,18.6,0,0,1-18.59-18.6V347.66H472.23Z" data-name="&lt;Group&gt;"/><path fill="#00acea" d="M472.23,132.82V347.66H380.4V114.23h73.24A18.586,18.586,0,0,1,472.23,132.82Z" data-name="&lt;Group&gt;"/><path fill="#00efd1" d="M255,279.45l1,.32,73.41-23.67V155.9L256,132.23,182.59,155.9V256.1Zm125.4,67.43v.78H131.6V53.12a27.676,27.676,0,0,1,27.68-27.68H306.5V87.73a13.845,13.845,0,0,0,13.84,13.84h54.67l5.39,6V346.88Z" data-name="&lt;Group&gt;"/><path fill="#00acea" d="M306.5,25.44,375,101.57H320.34A13.845,13.845,0,0,1,306.5,87.73Z" data-name="&lt;Group&gt;"/><polygon fill="#00acea" points="316.87 419.35 335.46 486.56 176.54 486.56 195.13 419.35 316.87 419.35" data-name="&lt;Group&gt;"/><polygon fill="#fedb41" points="329.41 155.9 329.41 256.1 256 279.77 255 279.45 255 179.26 256 179.58 329.41 155.9" data-name="&lt;Group&gt;"/><polygon fill="#fedb41" points="255 179.26 182.59 155.9 256 132.23 329.41 155.9 256 179.58 255 179.26" data-name="&lt;Group&gt;"/><polygon fill="#fedb41" points="255 179.26 255 279.45 182.59 256.1 182.59 155.9 255 179.26" data-name="&lt;Group&gt;"/><path fill="#00acea" d="M131.6,346.88v.78H39.77V132.82a18.586,18.586,0,0,1,18.59-18.59H131.6Z" data-name="&lt;Group&gt;"/></g><g data-name="&lt;Group&gt;"><path fill="#083863" d="M32,132.82V400.75A26.132,26.132,0,0,0,58.36,427H184.616l-14.164,52h-28.8a8,8,0,1,0,0,16h34.866l.029,0,.023,0H335.432l.023,0,.029,0H370.35a8,8,0,0,0,0-16h-28.8l-14.164-52H453.64A26.132,26.132,0,0,0,480,400.75V132.82c0-14.662-11.7-26.82-26.36-26.82H388.283a10.118,10.118,0,0,0-1.931-3.892l-5.391-5.942c-.034-.038-.072-.041-.107-.079L312.447,19.855A8.206,8.206,0,0,0,306.5,17H159.28C139.6,17,124,33.446,124,53.12V106H58.36C43.7,106,32,118.158,32,132.82ZM324.946,479H187.054l14.164-52H310.782ZM453.64,411H58.36A10.118,10.118,0,0,1,48,400.75V356H464v44.75A10.118,10.118,0,0,1,453.64,411ZM314,46.292,357.04,94h-36.7A6.674,6.674,0,0,1,314,87.73ZM464,132.82V340H388V122h65.64A10.608,10.608,0,0,1,464,132.82ZM159.28,33H298V87.73A22.668,22.668,0,0,0,320.34,110h51.1l.558.637V340H140V53.12C140,42.269,148.429,33,159.28,33ZM124,340H48V132.82A10.608,10.608,0,0,1,58.36,122H124Z" data-name="&lt;Compound Path&gt;"/><path fill="#083863" d="M180.34,263.714l72.329,23.357.949.32a7.828,7.828,0,0,0,2.408.379,7.929,7.929,0,0,0,2.442-.386l73.2-23.67A7.815,7.815,0,0,0,337,256.1V155.9a7.819,7.819,0,0,0-5.34-7.614l-73.307-23.67a7.863,7.863,0,0,0-4.859,0l-73.385,23.67a7.808,7.808,0,0,0-5.327,7.613H175V256.1A7.82,7.82,0,0,0,180.34,263.714ZM191,166.887l56,18.2v83.379l-56-18.191Zm72,102.22V185.728l58-18.842v83.387Zm-7-128.471L303.346,155.9,256,171.175,208.653,155.9Z" data-name="&lt;Compound Path&gt;"/></g></g></svg>