<svg id="Layer_1" data-name="Layer 1" xmlns="http://www.w3.org/2000/svg" viewBox="0 0 245.56 245.56"><defs><style>.cls-1,.cls-2{fill:#fff;}.cls-2{font-size:96.46px;font-family:Oregano-Regular, Oregano Regular;}</style></defs><path class="cls-1" d="M232.62,122.56A111.55,111.55,0,0,1,10.14,133.43C7.67,109.55,13.86,85,26.61,64.72a111.42,111.42,0,0,1,174-18.82,112.44,112.44,0,0,1,30.24,58.44,105.81,105.81,0,0,1,1.74,19c0,1.69,0,0,0-.74A111.68,111.68,0,0,0,159.93,16.9,111.65,111.65,0,0,0,9.65,116.15c-1.09,22.2,3.52,44.24,14.63,63.56a111.56,111.56,0,0,0,207.44-41.06,121.86,121.86,0,0,0,.95-15.4C232.67,122.46,232.62,120.82,232.62,122.56Z"/><path class="cls-1" d="M151.7,230.4A111.41,111.41,0,0,1,33.94,184.77c-13.33-19.51-20.72-43.89-19.28-67.62a112.33,112.33,0,0,1,23.5-61.82C66.47,19.09,115.7,3.75,159.53,17.6A111.7,111.7,0,0,1,237.43,118c2.57,46.08-27.27,90.21-69.57,107.24a121.32,121.32,0,0,1-16.16,5.12c-.2,0,.15,2.43,0,2.48a111.69,111.69,0,0,0,85.48-98.65,116.77,116.77,0,0,0-12.05-63.9A111.5,111.5,0,0,0,47,42.82,112.63,112.63,0,0,0,16,103.2a117.48,117.48,0,0,0,7.28,64.44,111.57,111.57,0,0,0,111,67.92,115.39,115.39,0,0,0,17.45-2.73C151.9,232.83,151.55,230.45,151.7,230.4Z"/><path class="cls-1" d="M176.49,220.22a112.53,112.53,0,0,1-68.32,12.16A113.42,113.42,0,0,1,59.48,26.54c20.08-13.76,45-20.06,69.21-18.42A113.4,113.4,0,0,1,192,209.79a109.57,109.57,0,0,1-16.06,10.73c-1.54.84-.1.1.59-.3a113.36,113.36,0,0,0,59.1-116A113.18,113.18,0,0,0,74.65,17.8C54.37,27.53,36.92,42.28,25.07,61.49A113.38,113.38,0,0,0,92.75,230.94a113.11,113.11,0,0,0,69-3.82,128.45,128.45,0,0,0,14.19-6.6C176.59,220.22,178.08,219.37,176.49,220.22Z"/><path class="cls-1" d="M41.33,199.91A113.48,113.48,0,0,1,25.22,72.66c11-21.35,29.15-39.72,51-49.85A113.62,113.62,0,0,1,142.63,14c46,7.79,83.39,44.38,92.17,90.26a113.48,113.48,0,0,1-51.91,118.11c-39.82,24.53-93.56,19.12-129.16-10.42a129.16,129.16,0,0,1-12.4-12c-.15-.15-2.08,1.34-2.23,1.19a113.18,113.18,0,0,0,129.21,28.8c20.48-8.84,38.52-23.09,51.12-41.56A113.35,113.35,0,0,0,89.28,17.2a119.12,119.12,0,0,0-54,37.64,113.56,113.56,0,0,0-7,131.92,112,112,0,0,0,10.86,14.29C39.3,201.25,41.23,199.76,41.33,199.91Z"/><text class="cls-2" transform="translate(59.82 153.59)">W</text><text class="cls-2" transform="translate(149.36 153.59)">I</text></svg>