<svg xmlns="http://www.w3.org/2000/svg" data-name="Layer 1" viewBox="0 0 700 550"><path d="M412.32277,256.495a33.22085,33.22085,0,0,0-4.24707-10.973c-1.077-1.62768-2.29419-3.12951-4.08374-3.59326a12.23837,12.23837,0,0,0-5.58471-.07983c-1.91932.31555-3.84583.83459-5.84412,1.21045a19.22514,19.22514,0,0,1-3.09607.38012,6.47373,6.47373,0,0,1-3.30395-.67517,5.85542,5.85542,0,0,1-2.42713-2.43518,10.25746,10.25746,0,0,1-1.01037-3.07593c-.093-.49878-.15918-1.04712-.24378-1.43542a4.14561,4.14561,0,0,0-.50159-1.13159,11.90817,11.90817,0,0,0-1.7362-2.1825l.47937-1.22632a.03737.03737,0,0,0-.05493.004c.00854.00012.05944-.0343.08874-.04724a1.62446,1.62446,0,0,0,.2544-.17041,6.52966,6.52966,0,0,0,.56323-.49585c.37549-.36145.74158-.7583,1.09778-1.16516.71325-.812,1.40234-1.67053,2.06189-2.53174l.76977.75208a2.09384,2.09384,0,0,1-.381.16943l-.26782.05078c-.18054.03345-.32556.03308-.48975.05042-.3114.01538-.61621.02185-.91662.01757-.60205-.00585-1.19593-.031-1.788-.06689-1.18493-.06714-2.35827-.177-3.53747-.28613l-.0066-.00061a.369.369,0,0,1-.31066-.23682,13.53992,13.53992,0,0,0-.61756-1.40222c-.23083-.4292-.50586-.92981-.81506-1.051-.918-.35144-1.98535-.58093-2.98914-.86206a27.95106,27.95106,0,0,1-3.08654-.942,1.163,1.163,0,0,1-.60071-.78968,2.2939,2.2939,0,0,1-.00354-.9,6.62333,6.62333,0,0,1,.5105-1.57068,37.83826,37.83826,0,0,1,3.2915-5.45312,10.08756,10.08756,0,0,0,1.37915-2.69837,5.621,5.621,0,0,0,.23291-2.832l.01514.04517a24.62877,24.62877,0,0,1-1.35791-5.30469,46.32382,46.32382,0,0,1-.51319-5.40051c-.07983-1.80347-.08362-3.60584-.03979-5.406.04309-1.80432.12768-3.59106.29907-5.40649a.87561.87561,0,0,1,1.68628-.23865l.01318.03418a57.68468,57.68468,0,0,0,3.74549,7.71521,43.48137,43.48137,0,0,0,4.9425,6.937,19.61143,19.61143,0,0,0,6.50964,5.03723,10.47538,10.47538,0,0,0,3.87366.945,12.20388,12.20388,0,0,0,3.96436-.53162l-.61316.73511a15.8832,15.8832,0,0,1,1.34814-4.17078,8.34592,8.34592,0,0,1,1.26929-1.90759,4.54688,4.54688,0,0,1,2.10022-1.3291,4.47755,4.47755,0,0,1,1.2804-.11255,4.91434,4.91434,0,0,1,1.19567.27685,6.17192,6.17192,0,0,1,2.00977,1.17383,7.70959,7.70959,0,0,1,2.26953,3.809,30.96825,30.96825,0,0,1,.99768,4.08521,14.38178,14.38178,0,0,1,.165,4.24536,4.89462,4.89462,0,0,1-2.10876,3.70532,6.068,6.068,0,0,1-4.14966.50305.09523.09523,0,0,1-.079-.109.09778.09778,0,0,1,.10315-.07983,5.9451,5.9451,0,0,0,3.84314-.74817,4.24422,4.24422,0,0,0,1.5885-3.35693,20.36066,20.36066,0,0,0-1.53845-7.84363,6.50252,6.50252,0,0,0-2.02588-3.1084,4.69436,4.69436,0,0,0-1.5614-.84631,3.38709,3.38709,0,0,0-.81092-.16736,1.411,1.411,0,0,0-.385.02661c-.12292.02844-.26062-.00769-.373.06458a4.216,4.216,0,0,0-2.25513,2.45947,14.22534,14.22534,0,0,0-1.06873,3.69726l-.00085.005a.92122.92122,0,0,1-.61255.73035,13.07031,13.07031,0,0,1-4.63306.72729,12.44132,12.44132,0,0,1-4.58178-1.04285,20.57014,20.57014,0,0,1-7.23609-5.52526,41.59425,41.59425,0,0,1-5.08716-7.33863,59.33074,59.33074,0,0,1-3.73754-8.06225l1.69934-.20447c-.18677,1.73767-.32032,3.517-.42176,5.28039-.09753,1.76758-.14807,3.53809-.124,5.3042.02771,1.7649.07043,3.53308.27319,5.27747a22.86934,22.86934,0,0,0,1.05909,5.10657l.0122.03393.00318.01172a6.38787,6.38787,0,0,1-.36963,3.37842A10.88036,10.88036,0,0,1,374.095,214.773a35.23,35.23,0,0,0-3.31946,5.286,6.05712,6.05712,0,0,0-.48755,1.41406c-.09741.47632-.04028.92615.29444,1.08618a9.83535,9.83535,0,0,0,1.43286.4657l1.52075.40149c1.02576.27112,2.02319.48511,3.08765.84351a1.25637,1.25637,0,0,1,.43078.27307,2.45457,2.45457,0,0,1,.29846.34057,6.12337,6.12337,0,0,1,.44861.705,14.15,14.15,0,0,1,.69934,1.46521l-.317-.23718c1.16638.0697,2.34167.1051,3.50793.11694.5835.006,1.16614.0011,1.74011-.02234.28772-.01025.57068-.03113.84571-.05835.12707-.02087.278-.03027.385-.059l.1643-.03784c.01844-.01391.00806-.01391.02405-.00427l.698.42053a.23306.23306,0,0,1,.07947.32l-.00769.01184c-.63587.92431-1.28577,1.82129-1.98706,2.70239-.34973.44067-.71131.87451-1.11036,1.29858a7.84512,7.84512,0,0,1-.64953.62793,2.92531,2.92531,0,0,1-.41882.30762,2.22538,2.22538,0,0,1-.27466.14783,2.24847,2.24847,0,0,1-.45667.10266l.47937-1.22607a13.29363,13.29363,0,0,1,2.09754,2.39184,5.49734,5.49734,0,0,1,.73694,1.57666c.13952.58289.1958,1.02686.2998,1.50549a9.73136,9.73136,0,0,0,.88269,2.57471,4.13994,4.13994,0,0,0,1.733,1.7345c1.452.78442,3.40747.54285,5.32752.22485,1.92883-.32312,3.8706-.80774,5.89477-1.103a12.59194,12.59194,0,0,1,6.24878.30786,8.11074,8.11074,0,0,1,1.47119.71521l.64734.50256a3.06174,3.06174,0,0,1,.59326.55359l.54041.60144c.16528.2052.30237.41968.45447.62891.30932.41345.56653.85717.83252,1.29467a24.35127,24.35127,0,0,1,2.36084,5.59461,32.06815,32.06815,0,0,1,1.18737,5.90149.0951.0951,0,0,1-.08532.104A.1.1,0,0,1,412.32277,256.495Z"/><path d="M405.50736,219.07833a13.36086,13.36086,0,0,0-1.25633,9.36536c1.25633,5.25374-.81321,12.62638-.81321,12.62638s-5.24,18.66762,10.17857,15.41258,39.74565-11.64959,44.02859-28.61c0,0-4.697-12.04787-7.36665-15.93252-6.01082-8.74637-16.10384-31.69374-21.072-35.12009a15.29279,15.29279,0,0,0-4.25553-4.36653,25.75071,25.75071,0,0,0-17.81868-4.79493c-9.315.8668-24.31483,4.717-32.74739,19.78314,0,0,8.16266,25.4043,24.15577,20.67231,0,0,1.26062-8.98506,6.7571-6.28385a6.41556,6.41556,0,0,1,3.08075,3.51838C409.833,209.14854,412.14085,217.41334,405.50736,219.07833Z"/><path d="M376.44045 208.17114a6.04719 6.04719 0 011.30066-1.47973 7.96893 7.96893 0 011.65149-1.08606 6.50582 6.50582 0 011.91662-.58741 3.83125 3.83125 0 011.984.24073 12.9786 12.9786 0 00-3.48608 1.20288C378.70119 206.98828 377.63979 207.61157 376.44045 208.17114zM380.72343 213.19643a1.4285 1.4285 0 000-2.85529 1.4285 1.4285 0 000 2.85529zM457.64785 227.73682a48.838 48.838 0 019.78918 1.19482 66.49451 66.49451 0 019.48377 2.80432 78.82272 78.82272 0 019.057 4.02893c1.44043.81238 2.91577 1.57 4.30628 2.46863l2.11377 1.3042 2.04736 1.40515a86.41555 86.41555 0 0114.85266 13.11682 106.12931 106.12931 0 0111.64465 15.96253A187.52552 187.52552 0 01537.02 305.86389c.56616 1.541 1.03882 3.11048 1.50439 4.68286l1.42847 4.71057c.87756 3.16431 1.69275 6.36011 2.50024 9.55323 1.11768 6.44775 2.25757 12.89538 3.31751 19.35778a1.27366 1.27366 0 01-.6825 1.34278l-.01733.00842a193.32255 193.32255 0 01-18.54846 8.183q-4.75269 1.77228-9.5918 3.30176c-3.23828.97412-6.48657 1.91675-9.76916 2.72718a188.44424 188.44424 0 01-19.90015 3.80627 183.256 183.256 0 01-20.16248 1.5852l-.03662.001a.55257.55257 0 01-.39465-.15112c-3.03613-2.882-6.10327-5.72876-9.1123-8.64173a.136.136 0 01.17944-.204c3.2727 2.61315 6.48718 5.29248 9.73266 7.93664l-.431-.15c6.679-.50379 13.30982-1.42347 19.89539-2.52076 6.58569-1.11267 13.09985-2.59289 19.53589-4.33068q9.65533-2.60614 19.04565-6.06885c6.25379-2.3031 12.41577-4.87049 18.42176-7.77564l-.69959 1.35083c-.97925-6.45092-1.87829-12.917-2.79956-19.38269-.67078-3.17187-1.30823-6.35266-2.03406-9.52331l-1.21154-4.73255c-.39856-1.58007-.80433-3.15869-1.30372-4.70922l-1.4292-4.67554c-.47241-1.561-1.09924-3.06726-1.64135-4.60413-1.07752-3.07812-2.33789-6.08471-3.65137-9.06836a113.931 113.931 0 00-9.48511-17.04785 120.97071 120.97071 0 00-12.11767-15.16772 100.45337 100.45337 0 00-14.45313-12.83045 87.0147 87.0147 0 00-16.7854-9.59277 69.36511 69.36511 0 00-18.68127-5.22547l-.00977-.00122a.1357.1357 0 01.01563-.2705z"/><path d="M539.90517 345.49866a24.10558 24.10558 0 011.97669 4.55017 39.80327 39.80327 0 011.22021 4.69836 39.13361 39.13361 0 01.64771 4.81067 23.80777 23.80777 0 01-.11609 4.96045 23.79765 23.79765 0 01-1.98035-4.54944 39.1527 39.1527 0 01-1.21655-4.69909 39.82589 39.82589 0 01-.644-4.81141A24.11606 24.11606 0 01539.90517 345.49866zM461.85451 274.05676a32.97685 32.97685 0 014.06433-7.87561 34.42684 34.42684 0 015.95032-6.68689 28.586 28.586 0 013.68-2.63916 22.49093 22.49093 0 014.13636-1.8894 18.74993 18.74993 0 014.45068-.85632 15.97274 15.97274 0 014.44385.41723 26.54622 26.54622 0 00-4.30554.57373 24.38086 24.38086 0 00-4.019 1.34973 29.85871 29.85871 0 00-7.06689 4.59522 37.11286 37.11286 0 00-3.11365 2.91662c-1.01184 1.01014-1.94922 2.09546-2.89722 3.18055C465.31887 269.34473 463.55727 271.6499 461.85451 274.05676zM496.65664 259.087a19.26956 19.26956 0 014.46057 4.28076 24.47838 24.47838 0 013.15893 5.371 20.87709 20.87709 0 011.61121 6.04529 16.61311 16.61311 0 01-.39612 6.1864 54.91273 54.91273 0 00-1.16724-5.89575 38.996 38.996 0 00-1.922-5.5376 55.38961 55.38961 0 00-2.6034-5.29163C498.82009 262.51843 497.77578 260.81812 496.65664 259.087zM385.5849 286.80809c-.9502 3.67005-1.97022 7.37-3.2002 10.98-1.22021 3.61011-2.54 7.17005-3.68994 10.78-.54 1.7-1.06006 3.41-1.52 5.13-.23-.19007-.46-.39-.68994-.58.42969-1.61011.8999-3.21 1.37012-4.81006 1.06982-3.6499 2.12988-7.29 3.07959-10.95.98-3.65 1.71045-7.33008 2.43994-11.05 1.52051-7.41992 3.16016-14.82007 4.8501-22.21 1.68017-7.4 3.45019-14.77 5.3999-22.12a.13967.13967 0 01.17041-.09.12749.12749 0 01.1001.1499c-1 7.53-2.23047 15.02-3.61035 22.48C388.895 271.988 387.41449 279.42809 385.5849 286.80809zM422.43451 336.9381a5.934 5.934 0 01-2.32959.21008q-.87012-3.36-1.55029-6.77c-.58985-2.9-1.06006-5.81006-1.44971-8.75-.34033-2.62012-.6001-5.26-.68018-7.94006a52.99768 52.99768 0 00-10.58984-.55994 36.99572 36.99572 0 00-11.64014 2.35 33.75851 33.75851 0 00-8.66015 4.92c-.60987-.45007-1.23-.93005-1.85987-1.42a33.79156 33.79156 0 019.54981-5.92005 39.266 39.266 0 0112.43994-2.82007 49.75864 49.75864 0 0110.64014.55c-.52979-2.75-1.02-5.5-1.44971-8.26-.54-3.42993-1.05029-6.86987-1.49024-10.31994-.39013-3.46009-.74023-6.91-.96-10.39a90.76854 90.76854 0 01-.12011-10.42993.13469.13469 0 01.14013-.13013.14859.14859 0 01.12989.13013c.23 3.45.6499 6.87988 1.14013 10.29993.46973 3.42 1.06006 6.81994 1.68994 10.22009.58008 3.3999 1.23 6.78992 1.91993 10.17993l2.14013 10.12a1.39911 1.39911 0 01-1.08008 1.67 1.53082 1.53082 0 01-.52.02l-.02-.01c-.3501-.05-.7002-.09009-1.04-.15015a77.415 77.415 0 012.39013 7.48011c.77979 2.85 1.46 5.73 2.04 8.62Q421.93475 333.37811 422.43451 336.9381zM386.97455 362.52806c1.31006 1.33008 2.64013 2.67005 3.98 3.99l-26.33985-.06994c-14.18017-.11-28.37011-.15-42.5498-.34q-21.27027-.21-42.54-.59009l-21.28027-.46-10.62989-.23-10.64013-.31006 10.64013-.30993 10.62989-.23 21.28027-.46009q21.26953-.36 42.54-.59c14.17969-.19007 28.36963-.23 42.5498-.34z"/><path d="M577.34467 364.51805l-10.6399.31006-10.63012.23-21.28.45q-21.26991.36-42.5398.59009c-14.19018.18994-28.37012.23-42.55029.34l-2.04.01c1.32031-1.22 2.64014-2.5 3.94043-3.84 13.5498.1 27.08984.1499 40.6499.33q21.2699.195 42.5398.59l21.28.45008 10.63012.23zM265.24 247.57361c-.56763-.31018-1.3584-.531-1.759-.17334a2.039 2.039 0 00-.36328 1.63891 17.921 17.921 0 00.86376 3.82447c.78931 2.53869 1.80079 5.02881 2.80225 7.51806 1.052 2.4856 2.02539 5.01551 3.05542 7.51429l2.98047 7.54016 5.85767 15.09338c1.00341 2.49817 1.98193 5.01013 3.09423 7.443a25.049 25.049 0 001.83521 3.51209c.33081.49658.8479 1.11413 1.16113.94873a1.331 1.331 0 00.47974-.7168 6.75164 6.75164 0 00.26977-.97461 6.85238 6.85238 0 01-.032 1.0326 1.655 1.655 0 01-.4292 1.05432.79515.79515 0 01-.69507.17383 1.71336 1.71336 0 01-.58349-.23792 5.31419 5.31419 0 01-.85962-.70386 22.6228 22.6228 0 01-2.54126-3.32385 78.68772 78.68772 0 01-4.00684-7.17541c-1.25122-2.42859-2.33886-4.92591-3.45776-7.40711-1.07739-2.49866-2.09522-5.01953-3.10816-7.54114-.95874-2.5426-1.92334-5.08178-2.82812-7.64257-.87134-2.57532-1.78174-5.12635-2.56274-7.74a59.618 59.618 0 01-1.97315-8.01135 17.00581 17.00581 0 01-.21435-4.21045 4.68583 4.68583 0 01.25073-1.08471 1.63058 1.63058 0 01.75024-.9386 1.35412 1.35412 0 011.14282.01843A3.09509 3.09509 0 01265.24 247.57361z"/><path d="M262.66555 249.16162a52.04831 52.04831 0 009.63647.37366c3.21143-.11316 6.41651-.36585 9.602-.78235a168.46338 168.46338 0 0018.94251-3.51453c6.27319-1.41723 12.43469-3.28479 18.61511-5.10144l9.19177-3.00232c3.052-1.04345 6.08667-2.13977 9.16431-3.14038-2.9397 1.34095-5.92249 2.58643-8.88782 3.88465l-9.0758 3.44055c-1.5315.5227-3.06641 1.038-4.60779 1.53369-1.54444.4856-3.06726 1.04285-4.63257 1.463-3.12134.868-6.22839 1.79322-9.39539 2.49756-3.14831.77625-6.3396 1.36829-9.52856 1.9613-3.20935.48108-6.4176.97986-9.65857 1.21155C275.58449 250.4845 268.9861 250.66589 262.66555 249.16162zM348.35 262.47278a56.98805 56.98805 0 00-9.0879 2.98865c-1.47644.59863-2.94543 1.21814-4.39807 1.87024-1.43554.69445-2.89892 1.32177-4.308 2.069a182.74418 182.74418 0 00-16.60144 9.46229c-5.42847 3.34716-10.62219 7.0592-15.85181 10.72656l-7.69568 5.71814c-2.54284 1.93945-5.05236 3.92334-7.63293 5.83008 2.342-2.186 4.75488-4.2948 7.1344-6.448l7.445-6.09558q1.9074-1.467 3.83837-2.90552c1.29175-.95239 2.5542-1.94617 3.88611-2.844 2.64649-1.81945 5.27576-3.66589 8.01392-5.35131 2.70166-1.74073 5.50427-3.3208 8.29394-4.91785 2.84974-1.49231 5.68836-3.00635 8.63892-4.29541C335.8871 265.68225 341.96853 263.31677 348.35 262.47278z"/><polygon points="335.406 232.496 349.207 264.431 361.873 250.136 354.497 233.068 335.406 232.496"/><path d="M467.18093,342.53833a94.02046,94.02046,0,0,1-25.34961,30.29456,52.23852,52.23852,0,0,1-17.735,9.2622,27.78263,27.78263,0,0,1-10.07519,1.01367,22.3926,22.3926,0,0,1-2.52161-.45983,17.872,17.872,0,0,1-2.42712-.846,26.8708,26.8708,0,0,1-4.32263-2.57984,91.33755,91.33755,0,0,1-7.66211-6.298q-3.6656-3.321-7.2052-6.76636l-14.27173-13.616a129.46087,129.46087,0,0,1-13.3468-14.70752c-4.10584-5.13721-8.26844-10.22974-12.31861-15.41065l1.09607.55261a33.74471,33.74471,0,0,1-8.63574-1.47583,49.62707,49.62707,0,0,1-8.042-3.20483,39.10727,39.10727,0,0,1-7.30847-4.7345,11.18435,11.18435,0,0,1-1.65308-1.71045,5.01111,5.01111,0,0,1-.9397-2.54687,4.71787,4.71787,0,0,1,.6593-2.61853,6.68917,6.68917,0,0,1,1.65515-1.907l-.12451,1.5448-.92968-1.12915c-.281-.4076-.54761-.82959-.80457-1.25513a8.03492,8.03492,0,0,1-.95276-2.93713,5.77048,5.77048,0,0,1,.579-3.10791,6.33141,6.33141,0,0,1,2.03491-2.3501l.43555,1.354a5.10176,5.10176,0,0,1-3.80322-2.11035,5.153,5.153,0,0,1-.9242-4.08,5.62518,5.62518,0,0,1,2.07776-3.47863,5.10734,5.10734,0,0,1,3.77954-1.0575l.02063.00269a.13508.13508,0,0,1-.02063.269,4.77933,4.77933,0,0,0-3.36718,1.27258,4.834,4.834,0,0,0-1.54957,3.12586,4.09952,4.09952,0,0,0,.96363,3.16443,3.81362,3.81362,0,0,0,2.78271,1.41076.72667.72667,0,0,1,.52063,1.285l-.085.069a4.86756,4.86756,0,0,0-1.37927,1.823,4.03381,4.03381,0,0,0-.274,2.19458,6.20329,6.20329,0,0,0,.85925,2.16126c.23414.33594.47779.66785.724.99731l.83692.94422a1.07388,1.07388,0,0,1-.09119,1.516l-.00561.00488-.02771.02429a4.69594,4.69594,0,0,0-1.03467,1.30079,2.49933,2.49933,0,0,0-.31629,1.41162,2.74756,2.74756,0,0,0,.56653,1.322,9.2309,9.2309,0,0,0,1.32617,1.25268,36.77736,36.77736,0,0,0,6.96265,4.14746,48.092,48.092,0,0,0,7.63831,2.89112,35.011,35.011,0,0,0,7.93274,1.316l.00634.00024a1.46974,1.46974,0,0,1,1.09021.55261c4.0824,5.15577,8.05249,10.39991,12.07935,15.59937a151.10318,151.10318,0,0,0,12.70276,14.8844L390.594,365.44092c2.28662,2.35876,4.62574,4.66162,7.05017,6.869a66.63426,66.63426,0,0,0,7.64991,6.11975,22.3779,22.3779,0,0,0,4.23278,2.296,16.68819,16.68819,0,0,0,2.26807.64429,21.10448,21.10448,0,0,0,2.34668.28771,26.29376,26.29376,0,0,0,9.37329-1.494,52.6013,52.6013,0,0,0,8.75989-3.97022,72.869,72.869,0,0,0,8.125-5.26929c10.384-7.77587,19.152-17.67541,26.54858-28.52636a.136.136,0,0,1,.23255.1405Z"/><path d="M328.15468,286.444l-.01989.00146h-.00159l-.03638-.00524a13.74177,13.74177,0,0,1-4.45874-1.309,4.52391,4.52391,0,0,1-1.87878-1.70081,3.12437,3.12437,0,0,1-.08606-2.70679,6.63937,6.63937,0,0,1,3.448-3.63611,9.70858,9.70858,0,0,1,2.39245-.76086,5.971,5.971,0,0,1,2.69116.00354c2.93042.82019,5.866,1.62329,8.78418,2.483,2.91993.85449,5.84314,1.69763,8.746,2.6084l-1.459,1.63721c-.571-1.30469-1.09448-2.63013-1.63928-3.94617l-.02039-.04919a1.12173,1.12173,0,0,1,.6073-1.46546,1.13546,1.13546,0,0,1,.54956-.07873,46.54389,46.54389,0,0,1,6.43518,1.15942A18.62191,18.62191,0,0,1,355.387,279.764a6.30924,6.30924,0,0,1,.78833.43237l.39014.26306a4.6703,4.6703,0,0,1,.382.3573,1.44716,1.44716,0,0,1,.31775.40015,4.53093,4.53093,0,0,1,.23755.41138l.36486.7456c1.7428,3.94788,3.36072,7.87427,5.00708,11.8219.82581,1.98718,1.65467,3.89868,2.34986,6.026l.10229.4231a1.72218,1.72218,0,0,0,.085.31506,3.65664,3.65664,0,0,0,.29663.64453,8.34837,8.34837,0,0,0,.86475,1.24426,27.25322,27.25322,0,0,0,2.12952,2.29505,122.47126,122.47126,0,0,0,9.698,8.2008c3.35157,2.63465,6.67884,5.22864,10.13916,7.66053,3.44532,2.43383,7.05079,4.61059,10.72254,6.71032l2.76306,1.56409c.912.50635,1.82385.97485,2.76221,1.43372,1.865.92358,3.78259,1.77026,5.73217,2.52331,1.95337.73841,3.91919,1.4574,5.91053,2.00537a27.99678,27.99678,0,0,0,2.97839.65381,6.8393,6.8393,0,0,0,2.63867.00989l.11975-.03735c-.011-.00965-.11157.04235-.03869.01147l.16125-.06885.32251-.13769.645-.27539,1.2655-.56226c.8324-.38489,1.67017-.754,2.47217-1.17786a23.74471,23.74471,0,0,0,4.53052-2.947,63.08072,63.08072,0,0,0,7.38818-8.24084.1362.1362,0,0,1,.22217.15649c-.9685,1.60071-1.97021,3.179-3.037,4.72949a29.01816,29.01816,0,0,1-3.6029,4.41932,25.40432,25.40432,0,0,1-4.57727,3.51562c-.81531.50513-1.64282.98181-2.48963,1.408-.42175.21472-.84619.43823-1.26355.63538l-.62829.30444-.31409.15222-.1571.07605a2.85273,2.85273,0,0,1-.36353.141l.11939-.03711a5.93157,5.93157,0,0,1-1.95093.3396,14.24281,14.24281,0,0,1-1.74756-.07373,30.30686,30.30686,0,0,1-3.29712-.55761,51.63077,51.63077,0,0,1-6.27576-1.85584q-3.06627-1.10852-6.02648-2.49756c-.98487-.46094-1.96094-.98413-2.91309-1.51172l-2.79712-1.59509A126.99475,126.99475,0,0,1,377.05739,314.962a121.33452,121.33452,0,0,1-9.27063-8.94287,28.332,28.332,0,0,1-2.06738-2.52527,11.946,11.946,0,0,1-.887-1.426,4.579,4.579,0,0,1-.33936-.81872,2.632,2.632,0,0,1-.10461-.46021c-.02625-.16064-.05139-.23413-.07532-.3562a60.15087,60.15087,0,0,0-2.19287-5.923,123.49333,123.49333,0,0,0-5.47046-11.50965l-.39014-.66357a2.94775,2.94775,0,0,0-.18213-.26831.54916.54916,0,0,0-.19421-.20594c-.07581-.0548-.12756-.11706-.2146-.1726l-.28845-.15943a4.88239,4.88239,0,0,0-.63733-.28613,17.36158,17.36158,0,0,0-2.93469-.75684,56.59935,56.59935,0,0,0-6.21192-.6903l1.13636-1.59326c.5885,1.29711,1.19836,2.585,1.76062,3.89355a1.21044,1.21044,0,0,1-1.45032,1.63989l-.00879-.00268c-2.92066-.85364-5.8208-1.775-8.72437-2.68494-2.90515-.90478-5.79309-1.86609-8.686-2.81042a4.18738,4.18738,0,0,0-1.83008-.07947,7.93655,7.93655,0,0,0-1.98.49475,5.17718,5.17718,0,0,0-2.90063,2.59582,1.98191,1.98191,0,0,0-.15686,1.68714,3.56166,3.56166,0,0,0,1.32617,1.46,15.90531,15.90531,0,0,0,4.08984,1.77869l-.03747-.00525.01989.00146a.13623.13623,0,0,1,0,.27173Z"/><polygon points="327.383 285.714 332.732 286.531 327.336 286.927 327.383 285.714"/><polygon points="327.043 295.552 335.031 296.819 326.944 296.762 327.043 295.552"/><polygon points="327.578 305.021 333.428 307.252 327.257 306.193 327.578 305.021"/><path d="M321.71706 273.26428a14.0249 14.0249 0 013.50879.027 20.11342 20.11342 0 013.38623.67761l.35034.10193.0752.2345a13.17907 13.17907 0 01.6593 2.91565 13.18089 13.18089 0 01-1.7262-2.44055l.42517.33618a20.116 20.116 0 01-3.40063-.60083A14.01888 14.01888 0 01321.71706 273.26428zM341.52626 264.24255c.64075 1.03418 1.22242 2.09375 1.78443 3.162.56616 1.06641 1.09949 2.147 1.62121 3.23254l.10926.2273-.12012.26428c-.34583.761-.66956 1.53284-1.03467 2.28455l.01209-.54749c1.41272 3.13 2.71057 6.3097 3.82776 9.56739l-.2229-.20606c1.06689.46265 2.12841.9408 3.16882 1.48084-1.1532-.21045-2.28516-.48279-3.41187-.77063l-.13208-.03382-.09106-.17248c-1.60706-3.046-3.03333-6.17017-4.34473-9.344l-.11682-.28247.12891-.26526c.36511-.75171.7716-1.4834 1.156-2.2257l-.01086.49121c-.43311-1.12391-.85462-2.25281-1.24317-3.39588C342.21352 266.56763 341.84047 265.41785 341.52626 264.24255z"/><path d="M328.50405 274.54272a26.18364 26.18364 0 013.64758-.87963c1.22315-.21705 2.45068-.38758 3.68335-.50452 1.2323-.12158 2.47009-.18579 3.712-.20581a25.91293 25.91293 0 013.74841.17358 25.92851 25.92851 0 01-3.64734.88172c-1.22327.21606-2.45068.38794-3.68359.50244-1.23255.119-2.47022.18457-3.71228.20373A26.20117 26.20117 0 01328.50405 274.54272zM232.01491 260.72144q-13.61022 1.86492-27.25976 3.2677c-9.09693.96875-18.20581 1.79589-27.31714 2.59558-9.115.75451-18.23267 1.47851-27.36231 2.06176q-13.69043.92616-27.42041 1.38233 13.60988-1.86915 27.25952-3.27136c9.09693-.96814 18.20581-1.79529 27.31739-2.592 9.11523-.75147 18.23291-1.47547 27.36279-2.058Q218.28506 261.18292 232.01491 260.72144zM251.80788 306.52271c-5.37476 5.038-10.90112 9.89025-16.481 14.67724-5.57031 4.79871-11.23022 9.48731-16.90771 14.15466-5.7063 4.63221-11.43189 9.24073-17.24683 13.73975-5.80517 4.51086-11.66528 8.95471-17.67773 13.21167 5.3728-5.04028 10.89844-9.89355 16.47876-14.68 5.57055-4.79822 11.23071-9.48694 16.90991-14.152 5.70825-4.62988 11.43359-9.2384 17.249-13.73694C239.93825 315.22681 245.79714 310.78186 251.80788 306.52271zM210.02956 289.21826c-3.88647 1.49878-7.8313 2.76514-11.79687 3.94983-3.96192 1.19922-7.9585 2.26074-11.96192 3.29566-4.0144.99072-8.03638 1.9519-12.09277 2.776-4.053.83886-8.12671 1.594-12.25977 2.115 3.8855-1.50171 7.83032-2.76929 11.7959-3.95325 3.96216-1.19861 7.95874-2.26013 11.96289-3.29211 4.01514-.98792 8.03711-1.9491 12.09375-2.77259C201.82375 290.49866 205.89724 289.74231 210.02956 289.21826zM198.5281 314.41589c-4.644 3.48743-9.415 6.77137-14.23047 9.98377C179.49 327.625 174.6072 330.72974 169.71 333.811c-4.92139 3.04284-9.85864 6.05969-14.87109 8.95666-5.00415 2.90979-10.054 5.74634-15.23169 8.37805 4.64258-3.49 9.41284-6.775 14.22876-9.98694 4.8081-3.22473 9.69067-6.32934 14.5896-9.4082 4.92285-3.04028 9.86035-6.05725 14.8728-8.95361C188.303 319.88782 193.35231 317.05017 198.5281 314.41589zM457.73122 280.9624c-1.39783 3.44971-2.819 6.88843-4.31445 10.2926-1.48035 3.41126-2.95166 6.82667-4.50745 10.20276-1.54492 3.38111-3.04541 6.783-4.62683 10.147-1.56177 3.37329-3.21851 6.70227-4.88452 10.027l-.20715-.80993c2.90222 2.25952 5.7633 4.57507 8.69238 6.79809 2.9187 2.23719 5.91028 4.37513 8.89624 6.52088 3.001 2.12524 6.031 4.21081 9.0592 6.29907 3.033 2.08179 6.02747 4.21594 9.02637 6.344l-1.1311.08387a130.96118 130.96118 0 0010.12658-12.11341 143.02492 143.02492 0 008.79163-13.12353q2.0061-3.401 3.76465-6.93921c1.15039-2.36756 2.1831-4.78748 3.1571-7.23438a73.46 73.46 0 002.39856-7.52661 62.13226 62.13226 0 001.43189-7.79565.09524.09524 0 01.10449-.085.0975.0975 0 01.08557.09655 53.72249 53.72249 0 01-.81091 7.962 71.30518 71.30518 0 01-2.00391 7.77454 87.4485 87.4485 0 01-6.49866 14.67785 113.93684 113.93684 0 01-8.80371 13.41333 126.35819 126.35819 0 01-10.514 12.13111l-.00537.00537a.85577.85577 0 01-1.1261.07849c-2.92578-2.22742-5.856-4.449-8.7478-6.72266-2.89648-2.26733-5.79114-4.53723-8.71484-6.7677-2.93884-2.20971-5.87195-4.42724-8.87793-6.54565-2.99549-2.13257-6.05921-4.17261-9.08167-6.26856a.63731.63731 0 01-.222-.77612l.01489-.03418c1.47473-3.41382 2.95874-6.82324 4.53784-10.18848 1.55933-3.37439 3.19971-6.71093 4.79566-10.06836 1.585-3.36242 3.25451-6.68542 4.91491-10.01269 1.64539-3.33435 3.365-6.634 5.108-9.92285a.09528.09528 0 01.17248.08044zM405.36584 215.097a1.52916 1.52916 0 000-3.05649 1.52916 1.52916 0 000 3.05649z"/></svg>