<svg xmlns="http://www.w3.org/2000/svg" data-name="Layer 1" viewBox="0 0 32 32"><path fill="#231f20" d="M13.44,17.69H9.25V21a.4.4,0,0,1-.22.36.41.41,0,0,1-.19.05.39.39,0,0,1-.23-.07L6.84,20.16,5.08,21.35a.39.39,0,0,1-.23.07.46.46,0,0,1-.2-.05A.41.41,0,0,1,4.44,21V17.69H.25a.25.25,0,0,0-.25.25V29.56a.26.26,0,0,0,.25.26H13.44a.26.26,0,0,0,.25-.26V17.94A.26.26,0,0,0,13.44,17.69ZM2.21,25.41H4.85a.41.41,0,0,1,.41.41.42.42,0,0,1-.41.41H2.21a.41.41,0,0,1-.41-.41A.41.41,0,0,1,2.21,25.41ZM6.3,27.9H2.21a.41.41,0,0,1-.41-.41.41.41,0,0,1,.41-.41H6.3a.41.41,0,0,1,.41.41A.41.41,0,0,1,6.3,27.9Z"/><path fill="#231f20" d="M6.84 19.26a.39.39 0 0 1 .23.07l1.36.91V17.69H5.26v2.55l1.36-.91A.34.34 0 0 1 6.84 19.26zM31.74 17.69H27.56V21a.4.4 0 0 1-.22.36.41.41 0 0 1-.19.05.39.39 0 0 1-.23-.07l-1.77-1.19-1.77 1.19a.34.34 0 0 1-.22.07.49.49 0 0 1-.2-.05.41.41 0 0 1-.21-.36V17.69H18.56a.25.25 0 0 0-.25.25V29.56a.26.26 0 0 0 .25.26H31.74a.26.26 0 0 0 .26-.26V17.94A.26.26 0 0 0 31.74 17.69zM20.52 25.41h2.64a.41.41 0 0 1 .41.41.41.41 0 0 1-.41.41H20.52a.41.41 0 0 1-.41-.41A.41.41 0 0 1 20.52 25.41zm4.09 2.49H20.52a.41.41 0 0 1-.41-.41.41.41 0 0 1 .41-.41h4.09a.41.41 0 0 1 0 .82z"/><path fill="#231f20" d="M25.15 19.26a.48.48 0 0 1 .23.07l1.36.91V17.69H23.57v2.55l1.35-.91A.48.48 0 0 1 25.15 19.26zM9.4 14.31H22.59a.25.25 0 0 0 .25-.25V2.44a.26.26 0 0 0-.25-.26H18.4V5.5a.41.41 0 0 1-.21.36.45.45 0 0 1-.19 0 .4.4 0 0 1-.24-.07L16 4.66 14.23 5.84a.39.39 0 0 1-.23.07.32.32 0 0 1-.19 0 .4.4 0 0 1-.22-.36V2.18H9.4a.26.26 0 0 0-.25.26V14.06A.26.26 0 0 0 9.4 14.31zm2-4.42H14a.41.41 0 0 1 .41.41.41.41 0 0 1-.41.41H11.36A.41.41 0 0 1 11 10.3.42.42 0 0 1 11.36 9.89zm0 1.68h4.1a.41.41 0 0 1 0 .82h-4.1a.41.41 0 0 1 0-.82z"/><path fill="#231f20" d="M16,3.75a.48.48,0,0,1,.23.07l1.35.91V2.18H14.41V4.73l1.36-.91A.45.45,0,0,1,16,3.75Z"/></svg>