<svg xmlns="http://www.w3.org/2000/svg" data-name="Layer 1" viewBox="0 0 512 512"><path fill="#676e87" d="M368.38379,199h-224.335a7.49943,7.49943,0,0,1-7.5-7.5V52.5a37.54226,37.54226,0,0,1,37.5-37.5h164.335a37.54227,37.54227,0,0,1,37.5,37.5v139A7.49943,7.49943,0,0,1,368.38379,199Zm-216.835-15h209.335V52.5a22.52586,22.52586,0,0,0-22.5-22.5h-164.335a22.52586,22.52586,0,0,0-22.5,22.5Z"/><rect width="120" height="30" x="196" y="7.5" fill="#4a4f60" rx="10"/><path fill="#3b3f4d" d="M306,7.5H261a9.99987,9.99987,0,0,1,10,10v10a9.99987,9.99987,0,0,1-10,10h45a9.99987,9.99987,0,0,0,10-10v-10A9.99987,9.99987,0,0,0,306,7.5Z"/><path fill="#eee" d="M389,216.52V454.5a50.00561,50.00561,0,0,1-50,50H173a50.00561,50.00561,0,0,1-50-50V216.52a42.01993,42.01993,0,0,1,20.7-36.19995l9.59009-5.64014A42.03025,42.03025,0,0,0,174,138.49V103.26a14.999,14.999,0,0,1,15-15H323a14.999,14.999,0,0,1,15,15v35.23a41.97452,41.97452,0,0,0,20.71,36.18994l9.58008,5.64014A41.99526,41.99526,0,0,1,389,216.52Z"/><path fill="#dedede" d="M368.29,180.32007,358.71,174.67993A41.97452,41.97452,0,0,1,338,138.49V103.26a14.999,14.999,0,0,0-15-15H278a14.999,14.999,0,0,1,15,15v35.23a41.97452,41.97452,0,0,0,20.71,36.18994l9.58008,5.64014A41.99526,41.99526,0,0,1,344,216.52V454.5a50.00561,50.00561,0,0,1-50,50h45a50.00561,50.00561,0,0,0,50-50V216.52A41.99526,41.99526,0,0,0,368.29,180.32007Z"/><path fill="#595f74" d="M345.51,162.45l-.01.05c-13.39014,1.46-27.48,2.66992-42.22,3.51a43.00216,43.00216,0,0,1-2.77-3.56006A41.96318,41.96318,0,0,1,293,138.49V103.26a14.999,14.999,0,0,0-15-15h45a14.999,14.999,0,0,1,15,15v35.23A41.96318,41.96318,0,0,0,345.51,162.45Z"/><path fill="#676e87" d="M345.51,162.45l-.01.05c-24.49,2.66992-51.33008,4.49-80.21,4.81006A824.936,824.936,0,0,1,166.5,162.5l-.02-.05A41.89777,41.89777,0,0,0,174,138.49V103.26a14.999,14.999,0,0,1,15-15H323a14.999,14.999,0,0,1,15,15v35.23A41.96318,41.96318,0,0,0,345.51,162.45Z"/><path fill="#595f74" d="M345.51,162.45l-.01.05c-13.39014,1.46-27.48,2.66992-42.22,3.51a43.00216,43.00216,0,0,1-2.77-3.56006A41.96318,41.96318,0,0,1,293,138.49V103.26a14.999,14.999,0,0,0-15-15h45a14.999,14.999,0,0,1,15,15v35.23A41.96318,41.96318,0,0,0,345.51,162.45Z"/><path fill="#f66" d="M389,283.89014v135A856.34547,856.34547,0,0,1,260.84009,429.23,858.85394,858.85394,0,0,1,123,418.89014v-135A858.85394,858.85394,0,0,0,260.84009,294.23,856.34547,856.34547,0,0,0,389,283.89014Z"/><path fill="#ff4e4e" d="M389,283.89014v135c-14.09009,2.21972-29.10986,4.21-45,5.84985v-135C359.89014,288.1001,374.90991,286.10986,389,283.89014Z"/><path fill="#676e87" d="M299.5,233h-87a7.5,7.5,0,0,1,0-15h87a7.5,7.5,0,0,1,0,15Z"/></svg>