<svg xmlns="http://www.w3.org/2000/svg" enable-background="new 0 0 50 50" viewBox="0 0 50 50"><path fill="#8EC163" d="M38.33,12.9884c2.8932-2.1678,3.5228-2.4731,4.5337-3.5149c1.2438-1.2817,3.7267-3.5773,3.2507-4.5325
		c-0.4448-0.8926-2.4742,0.8548-2.4742,0.8548S38.8633,8.964,38.33,12.9884z"/><path fill="#8EC163" d="M38.6645,12.2333c0,0,1.6155-4.538,0.2048-8.6652c0,0-0.6524-1.6056-0.8377-0.3086
		C37.8464,4.5565,37.7217,9.7215,38.6645,12.2333z"/><path fill="#8EC163" d="M38.9957,13.452c-0.3934-0.2431-1.3899-0.6628-3.4805-3.9354c-2.0906-3.2732-2.0291-6.7218-1.4264-8.2905
		c0.6027-1.5692,2.0797,3.9174,2.0797,3.9174l2.6978,7.8704L38.9957,13.452z"/><path fill="#8EC163" d="M38.6745,12.9884c0,0-5.7999-4.5453-8.5753-4.5099C30.0993,8.4785,34.0029,12.5434,38.6745,12.9884z"/><rect width="10.108" height="3.548" x="33.083" y="12.363" fill="#CDCCCC"/><path fill="#EEEDED" d="M46.9172,24.7418v22.5627c0,0.7518-0.5613,1.3832-1.293,1.4434c-4.9916,0.411-9.9833,0.411-14.985,0
		c-0.7217-0.0601-1.283-0.6916-1.283-1.4434V24.8922c0-1.4233,0.7016-2.7765,1.8944-3.5182
		c1.0065-0.6291,2.6763-1.2741,2.6763-3.3602v-2.1326h8.4196v1.9517c0,1.1261,0.5932,2.1773,1.5788,2.7218
		C45.6316,21.4975,46.9172,22.5336,46.9172,24.7418z"/><path fill="#72B0E0" d="M29.4721,23.913c-0.074,0.3182-0.1158,0.6464-0.1158,0.9792v22.4123c0,0.7518,0.5613,1.3832,1.283,1.4434
		c5.0016,0.411,9.9933,0.411,14.985,0c0.7317-0.0601,1.293-0.6916,1.293-1.4434V24.7418c0-0.28-0.0337-0.5569-0.087-0.8288H29.4721z
		"/><path fill="#FCCC67" d="M15.6968,28.3882c0,0,1.4698,1.5729,3.138,0.8502c0,0,1.656-0.9195,0.9619-2.0972
		c-0.694-1.1777-2.2046-0.9422-2.2046-0.9422s4.2187-2.0579,3.2933-3.3348c-0.9254-1.2769-2.6945-0.4959-3.13-0.124
		s-1.8644,1.686-1.8644,1.686s-1.3745-2.9009-3.0212-2.343c-1.6467,0.5579-1.2248,3.0744,0.6668,3.8306
		c0,0-3.0758,0.0438-2.9577,1.2887c0.1181,1.2449,2.2438,0.9221,2.2438,0.9221s-1.7208,0.9211-0.9844,1.5457
		S15.1999,30.761,15.6968,28.3882z"/><path fill="#EBB760" d="M16.6019,27.4739c0.2568,0.4074,0.3145,0.8616,0.2006,1.2579c-0.5342-0.1083-1.0191-0.3938-1.3265-0.8556
		c-0.2764,0.4164-0.7451,0.7361-1.3347,0.8538c-0.1208-0.4445-0.0307-0.8925,0.2068-1.2597c-0.5056-0.0088-1.001-0.1792-1.39-0.506
		c0.4115-0.3602,0.958-0.5358,1.5005-0.5288c-0.356-0.4438-0.4436-0.9784-0.3173-1.4178c0.6388,0.1285,0.9887,0.4156,1.3306,0.8556
		c0.2763-0.4164,0.7451-0.7361,1.3347-0.8538c0.144,0.5357-0.0281,1.0948-0.3255,1.4195c0.4838-0.0436,1.1188,0.1245,1.5701,0.506
		C17.652,27.2912,17.1239,27.4669,16.6019,27.4739z"/><path fill="#FCCC67" d="M27.5815,28.1818c0,0,2.0282,2.1704,4.3301,1.1731c0,0,2.285-1.2688,1.3273-2.8939
		c-0.9577-1.6251-3.0422-1.3001-3.0422-1.3001s5.8214-2.8397,4.5445-4.6016c-1.277-1.762-3.7182-0.6843-4.3191-0.1711
		s-2.5727,2.3265-2.5727,2.3265s-1.8967-4.0029-4.1689-3.2331c-2.2722,0.7698-1.6901,4.2424,0.9202,5.2859
		c0,0-4.2443,0.0605-4.0813,1.7782c0.163,1.7178,3.0963,1.2724,3.0963,1.2724s-2.3745,1.2711-1.3583,2.133
		S26.8959,31.4561,27.5815,28.1818z"/><path fill="#EBB760" d="M28.8305,26.9202c0.2231,0.3539,0.3531,0.7588,0.3531,1.1758c0,0.1891-0.0226,0.3733-0.0763,0.56
		c-0.7371-0.1494-1.4062-0.5434-1.8304-1.1806c-0.3814,0.5745-1.0282,1.0158-1.8417,1.1782
		c-0.1667-0.6133-0.0424-1.2315,0.2853-1.7382c-0.6977-0.0121-1.3813-0.2473-1.918-0.6982c0.5678-0.497,1.322-0.7394,2.0705-0.7297
		c-0.4913-0.6123-0.6122-1.35-0.4378-1.9564c0.8814,0.1773,1.3643,0.5734,1.8361,1.1806c0.3813-0.5745,1.0282-1.0158,1.8417-1.1782
		c0.1988,0.7392-0.0388,1.5107-0.4491,1.9588c0.6676-0.0602,1.5438,0.1718,2.1666,0.6982
		C30.2796,26.6681,29.5508,26.9105,28.8305,26.9202z"/><circle cx="37.544" cy="35.211" r="5.085" fill="#FFF"/><path fill="#B78E66" d="M29.5643,46.7875L29.5643,46.7875c0,1.253-1.0157,2.2687-2.2687,2.2687H12.6908
		c-1.253,0-2.2687-1.0157-2.2687-2.2687v0c0-1.253,1.0157-2.2687,2.2687-2.2687h14.6048
		C28.5485,44.5188,29.5643,45.5345,29.5643,46.7875z"/><path fill="#B78E66" d="M35.4839,28.5849H4.5025c-0.8209,0-1.4802,0.6987-1.4153,1.5171
		c0.7288,9.1895,8.0179,16.414,16.9096,16.414c8.885,0,16.1738-7.2244,16.9025-16.414
		C36.9642,29.2835,36.3049,28.5849,35.4839,28.5849z"/><path fill="#A77A4E" d="M35.4839,28.5848h-1.4684c-1.5172,8.256-8.3913,14.4951-16.6474,14.4951
		c-4.5852,0-8.7412-1.9244-11.7943-5.0455c2.9932,5.0902,8.3314,8.4815,14.4229,8.4815c8.885,0,16.1738-7.2244,16.9025-16.414
		C36.9642,29.2835,36.3049,28.5848,35.4839,28.5848z"/></svg>