<svg xmlns="http://www.w3.org/2000/svg" enable-background="new 0 0 50 50" viewBox="0 0 50 50"><polygon fill="#CC8B50" points="35.178 46.832 48.08 39.334 48.05 41.502 35.148 49"/><polygon fill="#E5AD70" points="1.909 27.624 14.811 20.126 48.08 39.334 35.178 46.832"/><path fill="#4F4D4D" d="M32.6004,37.746l0.0177,1.3062c0.0019,0.3691-0.2369,0.7397-0.7184,1.0248
					c-0.9702,0.5743-2.561,0.5855-3.544,0.0285c-0.4966-0.2815-0.7469-0.655-0.7488-1.0299l-0.0177-1.3062
					c0.0019,0.3749,0.2522,0.7484,0.7488,1.0299c0.9829,0.557,2.5737,0.5458,3.544-0.0285
					C32.3635,38.4857,32.6023,38.1151,32.6004,37.746z"/><path fill="#FFF" d="M31.8539,36.7182c0.9829,0.5571,0.9981,1.4784,0.028,2.0526c-0.9702,0.5743-2.561,0.5855-3.544,0.0285
					c-0.9856-0.5586-1.0008-1.48-0.0306-2.0542C29.2774,36.1708,30.8682,36.1596,31.8539,36.7182z"/><polygon fill="#FFF" points="27.603 37.916 32.52 37.501 33.624 27.338 26.477 28.196"/><polygon fill="#D8D8D8" points="33.718 26.437 33.662 26.926 33.62 27.332 26.474 28.199 25.899 27.421"/><path fill="#DD454D" d="M19.6885,26.2854c0,2.842-2.9214,5.1454-6.518,5.1454c-1.218,0-2.3566-0.2648-3.3318-0.7236
				c-1.9108-0.896-3.1862-2.542-3.1862-4.4218c0-2.8422,2.917-5.1499,6.518-5.1499c1.7475,0,3.3274,0.5426,4.4969,1.4252
				C18.9118,23.4963,19.6885,24.8202,19.6885,26.2854z"/><path fill="#BC2B3A" d="M14.9485,19.946l-0.0096,1.6347c-0.0039,1.3767-3.5528,1.3145-3.5491-0.0139l0.0096-1.6347
							c-0.0027,0.969,1.9774,1.3483,3.0362,0.7331C14.7767,20.4669,14.9477,20.2069,14.9485,19.946z"/><path fill="#EF595A" d="M14.4229,19.2123c0.6968,0.4023,0.7004,1.0532,0.0127,1.4529
							c-1.6709,0.971-4.1663-0.4993-2.5209-1.4555C12.6024,18.81,13.7305,18.8125,14.4229,19.2123z"/><path fill="#BC2B3A" d="M13.672,16.0343l-0.0027,3.7342c-0.0002,0.073-0.0481,0.1458-0.1436,0.2013
							c-0.1938,0.1126-0.5083,0.1126-0.7033,0c-0.0977-0.0564-0.1467-0.1308-0.1465-0.2052l0.0027-3.7342
							c-0.0002,0.0744,0.0488,0.1488,0.1465,0.2052c0.195,0.1126,0.5095,0.1126,0.7033,0
							C13.6239,16.18,13.6718,16.1073,13.672,16.0343z"/><path fill="#E8E8E8" d="M13.5249,15.8289c0.195,0.1126,0.196,0.2948,0.0035,0.4066c-0.1938,0.1126-0.5083,0.1126-0.7033,0
							c-0.1938-0.1119-0.196-0.2948-0.0023-0.4074C13.0153,15.7163,13.3311,15.717,13.5249,15.8289z"/><path fill="#DD454D" d="M15.8454,17.374c0,0.2574-0.1815,0.5742-0.4093,0.7062c-0.1056,0.0595-0.2013,0.0693-0.2739,0.0364
						c0,0-0.0033,0-0.0033-0.0034c-0.0165-0.0066-0.033-0.0198-0.0462-0.0297c-0.7558-0.4985-1.4753-1.0991-2.1552-1.6436
						c-0.6007-0.4819-1.1948-0.9308-1.7525-1.2543c-0.2343-0.1352-0.4588-0.2475-0.6799-0.3333h-0.0033
						c-0.0033,0-0.0066-0.0034-0.0066-0.0034c-0.0165-0.0098-0.033-0.0197-0.0429-0.0297
						c-0.0561-0.0529-0.0924-0.1386-0.0924-0.2508c0-0.2806,0.1914-0.6172,0.4291-0.7526c0.0924-0.0561,0.1749-0.0725,0.2443-0.0593
						c0.0066,0.0032,0.0099,0.0032,0.0132,0.0032c0.0264,0.0132,0.0495,0.0297,0.0759,0.0429l0.0033,0.0034
						c0.0132,0.0066,0.0231,0.0132,0.0363,0.0198c0.0099,0.0064,0.0165,0.0098,0.0264,0.0164
						c0.6865,0.3961,1.3532,0.9076,1.977,1.4059c0.8416,0.6799,1.6502,1.35,2.4027,1.7856l0.1188,0.0693
						c0.0165,0.0034,0.0297,0.0132,0.0429,0.0232C15.8091,17.1726,15.8454,17.2585,15.8454,17.374z"/><path fill="#BC2B3A" d="M15.8454,17.374c0,0.2574-0.1815,0.5742-0.4093,0.7062c-0.1056,0.0595-0.2013,0.0693-0.2739,0.0364
						c0,0-0.0033,0-0.0033-0.0034c-0.0165-0.0066-0.033-0.0198-0.0462-0.0297c-0.0528-0.0495-0.0858-0.132-0.0858-0.2377
						c0-0.2607,0.1815-0.5776,0.406-0.7062c0.1056-0.0629,0.2013-0.0727,0.2739-0.0364c0.0165,0.0034,0.0297,0.0132,0.0429,0.0232
						C15.8091,17.1726,15.8454,17.2585,15.8454,17.374z"/><path fill="#EF595A" d="M11.2446,14.0636c0,0.274-0.1914,0.614-0.4324,0.7526c-0.1122,0.0659-0.2112,0.0759-0.2871,0.0363
						h-0.0033c-0.0033,0-0.0066-0.0034-0.0066-0.0034c-0.0165-0.0098-0.033-0.0197-0.0429-0.0297
						c-0.0561-0.0529-0.0924-0.1386-0.0924-0.2508c0-0.2806,0.1914-0.6172,0.4291-0.7526c0.0924-0.0561,0.1749-0.0725,0.2443-0.0593
						c0.0066,0.0032,0.0099,0.0032,0.0132,0.0032c0.0132,0.0032,0.0231,0.01,0.033,0.0132
						c0.0165,0.0032,0.0297,0.0198,0.0429,0.0297l0.0033,0.0034C11.205,13.8557,11.2446,13.9448,11.2446,14.0636z"/><path fill="#BC2B3A" d="M19.6885,26.2854c0,2.842-2.9214,5.1454-6.518,5.1454c-1.218,0-2.3566-0.2648-3.3318-0.7236
				c1.3129-0.0762,1.1272-1.1387,1.7652-1.6284c0.5516-0.415,1.368-0.1194,2.0035-0.3797c1.2705-0.5159,0.9367-2.2696,1.7387-3.2391
				c0.5869-0.7016,1.6814-0.9091,2.1006-1.7256c0.1809-0.3575,0.1942-0.7678,0.2206-1.1739
				C18.9118,23.4963,19.6885,24.8202,19.6885,26.2854z"/><path fill="#EF595A" d="M10.9793,22.241c-0.9201,0.4089-1.6728,1.1813-2.0576,2.1117c-1.0561,2.553,0.6855,5.0024,0.4271,5.3755
				C7.5198,28.7333,7.0218,21.8412,10.9793,22.241z"/><g><polygon fill="#D89C60" points="35.178 46.832 35.148 49 1.879 29.792 1.909 27.624"/></g><g><polygon fill="#CC8B50" points="35.219 27.706 48.121 20.208 48.091 22.376 35.189 29.874"/><polygon fill="#E5AD70" points="1.95 8.498 14.852 1 48.121 20.208 35.219 27.706"/><polygon fill="#D89C60" points="35.219 27.706 35.189 29.874 1.92 10.666 1.95 8.498"/></g><g><polygon fill="#4F4D4D" points="42.115 6.041 40.721 19.891 36.101 15.652 36.138 2.59"/><polygon fill="#3D3D3D" points="36.138 2.59 36.101 15.652 30.162 19.103 30.199 6.042"/><polygon fill="#4F4D4D" points="36.179 9.965 36.142 23.027 30.162 19.574 29.398 6.05"/><polygon fill="#3D3D3D" points="42.931 6.042 41.537 19.891 36.142 23.027 36.179 9.965"/><path fill="#686868" d="M36.1497,2.1263l6.7812,3.9151l-6.7517,3.9236L29.398,6.05L36.1497,2.1263z M36.1765,9.4926
						l5.9388-3.4512l-5.9774-3.4511l-5.9388,3.4512L36.1765,9.4926"/></g><g><polygon fill="#4F4D4D" points="25.738 9.119 25.735 10.289 20.028 13.606 20.031 12.436"/><polygon fill="#686868" points="20.031 12.436 20.028 13.606 10.311 7.996 10.315 6.826"/><polygon fill="#777676" points="25.738 9.119 20.031 12.436 10.315 6.826 16.022 3.509"/><polygon fill="#3D3D3D" points="24.372 9.499 16.023 4.679 11.682 7.201 20.03 12.021"/></g><polygon fill="#4F4D4D" points="11.03 6.825 11.682 7.201 16.023 4.679 16.023 3.924"/><polygon fill="#686868" points="16.023 3.924 16.023 4.679 24.372 9.499 25.023 9.12"/><g><path fill="#DDC55E" d="M22.8812,7.1391L22.8766,9.052c0,0.4794-0.3149,0.9543-0.9401,1.3208
						c-0.6346,0.3665-1.4618,0.5499-2.2891,0.5499c-0.8273,0-1.6592-0.1834-2.2938-0.5499l-3.2244-1.8613
						c-0.6392-0.3713-0.9589-0.8554-0.9589-1.3348l0.0094-1.9084c0,0.4794,0.3196,0.9635,0.9541,1.3254l3.2244,1.8613
						c0.6346,0.3668,1.4665,0.5499,2.2938,0.5499c0.8273,0.0048,1.6592-0.1831,2.289-0.5499
						C22.5663,8.0931,22.8812,7.6137,22.8812,7.1391z"/><path fill="#F7E38F" d="M21.9261,5.802c1.2694,0.7329,1.2761,1.9215,0.0149,2.6544c-0.632,0.3673-1.4595,0.5527-2.2882,0.551
						c-0.8286-0.0017-1.6582-0.1836-2.2944-0.5509l-3.2231-1.8608c-1.2694-0.7329-1.2791-1.9198-0.0149-2.6544
						c0.6291-0.3656,1.4566-0.551,2.2882-0.551c0.8316,0,1.6582,0.1836,2.2944,0.5509L21.9261,5.802z"/></g></svg>