<svg xmlns="http://www.w3.org/2000/svg" data-name="Layer 1" viewBox="0 0 512 512"><g data-name="&lt;Group&gt;"><g data-name="&lt;Group&gt;"><path fill="#00efd1" d="M442.55,45.4V401.62c0,9.61-8.21,17.4-18.35,17.4H284.87v-.14l-.48-74.14,2.54-44.41,5.35-93.45,25.17-103.81H194.55l23.69,103.81,5.35,93.45,2.54,44.41-.47,74.14v.14H103.7a35.1,35.1,0,0,0-24.22,9.52,31.562,31.562,0,0,0-10.03,22.97V45.41C69.45,35.79,77.67,28,87.8,28H424.2C434.34,28,442.55,35.79,442.55,45.4Z" data-name="&lt;Group&gt;"/><path fill="#00acea" d="M418.09,419.02V466.6c0,9.61-8.22,17.4-18.35,17.4H103.7c-18.92,0-34.25-14.55-34.25-32.49a31.562,31.562,0,0,1,10.03-22.97,35.1,35.1,0,0,1,24.22-9.52H418.09Z" data-name="&lt;Group&gt;"/><polygon fill="#fedb41" points="317.45 103.07 292.28 206.88 218.24 206.88 194.55 103.07 317.45 103.07" data-name="&lt;Group&gt;"/><polygon fill="#00acea" points="292.28 206.88 286.93 300.33 286.61 300.31 223.91 300.31 223.59 300.33 218.24 206.88 292.28 206.88" data-name="&lt;Group&gt;"/><polygon fill="#f4b844" points="286.93 300.33 284.39 344.74 226.13 344.74 223.59 300.33 223.91 300.31 286.61 300.31 286.93 300.33" data-name="&lt;Group&gt;"/><polygon fill="#fedb41" points="284.87 418.88 284.87 419.02 225.66 419.02 225.66 418.88 226.13 344.74 284.39 344.74 284.87 418.88" data-name="&lt;Group&gt;"/></g><g data-name="&lt;Group&gt;"><path fill="#083863" d="M103.7,492H399.74c14.53,0,26.26-11.395,26.26-25.4V426.955c14-.936,25-11.941,25-25.335V45.4c0-14-12.271-25.4-26.8-25.4H87.8C73.271,20,61,31.4,61,45.41v406.1C61,473.836,80.4,492,103.7,492ZM77,45.41C77,40.222,82.093,36,87.8,36H424.2c5.707,0,10.8,4.217,10.8,9.4V401.62c0,5.183-5.093,9.38-10.8,9.38H292.819l-.427-66.067,7.835-136.881,25-103.1A8.056,8.056,0,0,0,317.45,95H194.55a8.052,8.052,0,0,0-7.8,9.833L210.292,208l7.836,136.932L217.709,411H103.7A45.714,45.714,0,0,0,77,419.777ZM233.685,337l-1.627-29h46.4l-1.627,29Zm-6.974-122h57.1l-4.433,77H231.143Zm59.277-16h-4.943l6.195-43.439a8,8,0,1,0-15.84-2.247L264.882,199H262V155a8,8,0,0,0-16,0v44h-1.1l-6.518-45.7a8,8,0,1,0-15.838,2.277L228.735,199H224.62l-20.039-88h102.7ZM234.08,353h42.361l.378,58H233.71Zm-149.1,81.335A27.034,27.034,0,0,1,103.7,427H410v39.6c0,5.183-4.553,9.4-10.26,9.4H103.7c-14.474,0-26.25-10.991-26.25-24.5A23.535,23.535,0,0,1,84.985,434.335Z" data-name="&lt;Compound Path&gt;"/></g></g></svg>