<?xml version="1.0" encoding="iso-8859-1"?>
<!-- Generator: Adobe Illustrator 19.0.1, SVG Export Plug-In . SVG Version: 6.00 Build 0)  -->
<svg version="1.1" xmlns="http://www.w3.org/2000/svg" xmlns:xlink="http://www.w3.org/1999/xlink" x="0px" y="0px"
	 viewBox="0 0 128 128" style="enable-background:new 0 0 128 128;" xml:space="preserve">
<g id="_x36_">
	<path style="fill:#F9F7A0;" d="M121.597,10.194H6.397c-2.64,0-4.8,2.144-4.8,4.8v98.016c0,2.656,2.16,4.8,4.8,4.8h115.2
		c2.656,0,4.8-2.144,4.8-4.8V14.994C126.397,12.338,124.253,10.194,121.597,10.194z M58.269,106.402
		c-23.408,0-42.4-18.992-42.4-42.4c0-23.424,18.992-42.4,42.4-42.4c23.424,0,42.4,18.976,42.4,42.4
		C100.669,87.41,81.693,106.402,58.269,106.402z M117.309,98.722c0,0.896-0.72,1.6-1.6,1.6h-7.952c-0.88,0-1.6-0.704-1.6-1.6v-13.92
		c0-0.88,0.72-1.6,1.6-1.6h7.952c0.88,0,1.6,0.72,1.6,1.6V98.722z M117.309,36.002h-11.152V24.194h11.152V36.002z"/>
	<circle style="fill:#FD7735;" cx="58.274" cy="64" r="34.4"/>
	<circle style="fill:#FFDF4D;" cx="58.274" cy="64" r="12.8"/>
	<path style="fill:#3A3A3A;" d="M121.6,119.406H6.4c-3.529,0-6.4-2.87-6.4-6.4V14.994c0-3.529,2.871-6.4,6.4-6.4h115.2
		c3.529,0,6.4,2.871,6.4,6.4v98.012C128,116.536,125.129,119.406,121.6,119.406z M6.4,11.794c-1.765,0-3.2,1.435-3.2,3.2v98.012
		c0,1.764,1.435,3.2,3.2,3.2h115.2c1.765,0,3.2-1.436,3.2-3.2V14.994c0-1.765-1.435-3.2-3.2-3.2H6.4z M62.532,64
		c0,2.352-1.907,4.259-4.259,4.259c-2.352,0-4.259-1.907-4.259-4.259s1.907-4.259,4.259-4.259
		C60.626,59.742,62.532,61.648,62.532,64z M94.273,64c0-19.851-16.149-36-36-36s-36,16.149-36,36c0,19.85,16.149,36,36,36
		S94.273,83.85,94.273,64z M91.073,64c0,18.086-14.714,32.8-32.8,32.8s-32.8-14.714-32.8-32.8s14.714-32.8,32.8-32.8
		S91.073,45.914,91.073,64z M101.473,64c0-23.82-19.38-43.2-43.2-43.2s-43.2,19.38-43.2,43.2s19.38,43.2,43.2,43.2
		S101.473,87.82,101.473,64z M98.273,64c0,22.056-17.944,40-40,40s-40-17.944-40-40s17.944-40,40-40S98.273,41.944,98.273,64z
		 M76.673,64c0-10.146-8.254-18.4-18.4-18.4s-18.4,8.254-18.4,18.4c0,10.145,8.254,18.4,18.4,18.4S76.673,74.145,76.673,64z
		 M75.073,64c0,9.264-7.537,16.8-16.8,16.8s-16.8-7.536-16.8-16.8c0-9.263,7.537-16.8,16.8-16.8S75.073,54.737,75.073,64z
		 M71.873,64c0-7.499-6.101-13.6-13.6-13.6s-13.6,6.101-13.6,13.6c0,7.498,6.101,13.6,13.6,13.6S71.873,71.498,71.873,64z
		 M70.273,64c0,6.617-5.383,12-12,12s-12-5.383-12-12s5.383-12,12-12S70.273,57.383,70.273,64z M118.903,98.727V84.8
		c0-1.764-1.435-3.2-3.2-3.2h-2.372V44.594h5.305v-3.2h-5.305V37.6h5.572V22.594h-14.345V37.6h5.573v3.794h-5.306v3.2h5.306V81.6
		h-2.373c-1.765,0-3.2,1.436-3.2,3.2v5.364h-5.485v3.2h5.485v5.363c0,1.764,1.435,3.2,3.2,3.2h7.945
		C117.468,101.927,118.903,100.491,118.903,98.727z M115.703,84.8l0.002,13.927h-7.947V84.8H115.703z M107.759,25.794h7.945V34.4
		h-7.945V25.794z"/>
</g>
<g id="Layer_1">
</g>
</svg>
